<svg width="179" height="59" viewBox="0 0 179 59" fill="none"
    xmlns="http://www.w3.org/2000/svg">
    <path fill-rule="evenodd" clip-rule="evenodd" d="M0 29.136C0 24.654 1.02695 20.172 3.08086 16.0567C7.9975 6.20979 18.0117 0.00196294 28.9622 0.00196294C36.1563 -0.0836622 43.1055 2.63494 48.3414 7.5798L40.0726 15.8962C37.0822 13.0277 33.0914 11.465 28.9622 11.5293C21.4065 11.5293 14.9893 16.656 12.7013 23.5596C12.0771 25.4208 11.7741 27.3612 11.7921 29.2994" fill="#0D0C22"/>
    <path fill-rule="evenodd" clip-rule="evenodd" d="M17.6191 29.2974C17.6361 31.1266 17.9391 32.9538 18.5282 34.7104H18.5388C20.8375 41.6031 27.244 46.73 34.7998 46.73C38.7002 46.73 42.0487 45.7266 44.6438 43.9544C47.698 41.9136 49.7839 38.7133 50.433 35.0956L34.2332 23.8788H62.1073C62.4478 25.8268 62.6075 27.8175 62.6075 29.7976C62.6075 38.6572 59.4594 46.1476 53.9816 51.2208C49.1878 55.6778 42.6005 58.2573 34.7892 58.2573C23.8386 58.2573 13.8244 52.0495 8.9078 42.2132C6.85389 38.0978 5.82694 33.6159 5.82694 29.1339" fill="#0D0C22"/>
    <path d="M67.088 42V24.324H72.416V27.384C73.256 25.32 75.056 24.18 77.816 23.964L79.4 23.856L79.724 28.428L76.664 28.752C73.976 29.016 72.632 30.384 72.632 32.856V42H67.088Z" fill="#0D0C22"/>
    <path d="M89.3835 42.396C87.4875 42.396 85.8315 42.024 84.4155 41.28C83.0235 40.512 81.9435 39.444 81.1755 38.076C80.4075 36.684 80.0235 35.04 80.0235 33.144C80.0235 31.272 80.4075 29.652 81.1755 28.284C81.9435 26.892 83.0235 25.824 84.4155 25.08C85.8315 24.336 87.4875 23.964 89.3835 23.964C91.2795 23.964 92.9235 24.336 94.3155 25.08C95.7315 25.824 96.8235 26.892 97.5915 28.284C98.3835 29.652 98.7795 31.272 98.7795 33.144C98.7795 35.04 98.3835 36.684 97.5915 38.076C96.8235 39.444 95.7315 40.512 94.3155 41.28C92.9235 42.024 91.2795 42.396 89.3835 42.396ZM89.3835 38.328C90.5355 38.328 91.4715 37.908 92.1915 37.068C92.9355 36.228 93.3075 34.92 93.3075 33.144C93.3075 31.392 92.9355 30.108 92.1915 29.292C91.4715 28.452 90.5355 28.032 89.3835 28.032C88.2315 28.032 87.2955 28.452 86.5755 29.292C85.8555 30.108 85.4955 31.392 85.4955 33.144C85.4955 34.92 85.8555 36.228 86.5755 37.068C87.2955 37.908 88.2315 38.328 89.3835 38.328Z" fill="#0D0C22"/>
    <path d="M107.883 42.396C105.627 42.396 103.959 41.772 102.879 40.524C101.823 39.276 101.295 37.404 101.295 34.908V24.324H106.731V35.052C106.731 37.14 107.631 38.184 109.431 38.184C110.463 38.184 111.303 37.824 111.951 37.104C112.623 36.36 112.959 35.388 112.959 34.188V24.324H118.395V42H113.103V39.588C111.927 41.46 110.187 42.396 107.883 42.396Z" fill="#0D0C22"/>
    <path d="M121.881 42V24.324H127.209V26.916C127.809 25.956 128.613 25.224 129.621 24.72C130.629 24.216 131.757 23.964 133.005 23.964C135.093 23.964 136.653 24.576 137.685 25.8C138.717 27 139.233 28.86 139.233 31.38V42H133.797V31.632C133.797 30.408 133.569 29.532 133.113 29.004C132.657 28.452 131.985 28.176 131.097 28.176C129.945 28.176 129.021 28.536 128.325 29.256C127.653 29.976 127.317 30.936 127.317 32.136V42H121.881Z" fill="#0D0C22"/>
    <path d="M149.447 42.396C147.911 42.396 146.555 42.024 145.379 41.28C144.227 40.512 143.327 39.444 142.679 38.076C142.031 36.684 141.707 35.04 141.707 33.144C141.707 31.248 142.031 29.616 142.679 28.248C143.327 26.88 144.227 25.824 145.379 25.08C146.555 24.336 147.911 23.964 149.447 23.964C150.623 23.964 151.703 24.216 152.687 24.72C153.671 25.224 154.415 25.896 154.919 26.736V16.62H160.355V42H155.027V39.336C154.547 40.272 153.803 41.016 152.795 41.568C151.811 42.12 150.695 42.396 149.447 42.396ZM151.067 38.328C152.219 38.328 153.155 37.908 153.875 37.068C154.619 36.228 154.991 34.92 154.991 33.144C154.991 31.392 154.619 30.108 153.875 29.292C153.155 28.452 152.219 28.032 151.067 28.032C149.915 28.032 148.979 28.452 148.259 29.292C147.539 30.108 147.179 31.392 147.179 33.144C147.179 34.92 147.539 36.228 148.259 37.068C148.979 37.908 149.915 38.328 151.067 38.328Z" fill="#0D0C22"/>
    <path d="M170.592 42.396C169.032 42.396 167.58 42.216 166.236 41.856C164.892 41.496 163.776 41.004 162.888 40.38L164.184 36.852C165.072 37.404 166.08 37.848 167.208 38.184C168.36 38.496 169.5 38.652 170.628 38.652C171.636 38.652 172.38 38.496 172.86 38.184C173.34 37.848 173.58 37.416 173.58 36.888C173.58 36.048 172.968 35.52 171.744 35.304L167.964 34.62C166.452 34.356 165.3 33.816 164.508 33C163.716 32.184 163.32 31.116 163.32 29.796C163.32 28.596 163.656 27.564 164.328 26.7C165 25.836 165.924 25.164 167.1 24.684C168.276 24.204 169.632 23.964 171.168 23.964C172.44 23.964 173.676 24.132 174.876 24.468C176.076 24.78 177.108 25.284 177.972 25.98L176.604 29.472C175.884 28.944 175.02 28.512 174.012 28.176C173.028 27.84 172.104 27.672 171.24 27.672C170.16 27.672 169.38 27.852 168.9 28.212C168.42 28.548 168.18 28.98 168.18 29.508C168.18 30.348 168.744 30.876 169.872 31.092L173.652 31.776C175.212 32.04 176.4 32.568 177.216 33.36C178.032 34.128 178.44 35.184 178.44 36.528C178.44 38.376 177.72 39.816 176.28 40.848C174.84 41.88 172.944 42.396 170.592 42.396Z" fill="#0D0C22"/>
</svg>
