<svg width="348" height="205" viewBox="0 0 348 205" fill="none" xmlns="http://www.w3.org/2000/svg">
<path d="M0 8C0 3.58173 3.58172 0 8 0H340C344.418 0 348 3.58172 348 8V197C348 201.418 344.418 205 340 205H8C3.58172 205 0 201.418 0 197V8Z" fill="#0D0C22"/>
<path d="M21 15C21 17.7614 18.7614 20 16 20C13.2386 20 11 17.7614 11 15C11 12.2386 13.2386 10 16 10C18.7614 10 21 12.2386 21 15Z" fill="#F91C1C"/>
<path d="M41 15C41 17.7614 38.7614 20 36 20C33.2386 20 31 17.7614 31 15C31 12.2386 33.2386 10 36 10C38.7614 10 41 12.2386 41 15Z" fill="#F58F31"/>
<path d="M61 15C61 17.7614 58.7614 20 56 20C53.2386 20 51 17.7614 51 15C51 12.2386 53.2386 10 56 10C58.7614 10 61 12.2386 61 15Z" fill="#3CCC5C"/>
<path d="M70 66C70 80.9117 57.9117 93 43 93C28.0883 93 16 80.9117 16 66C16 51.0883 28.0883 39 43 39C57.9117 39 70 51.0883 70 66Z" fill="#525252"/>
<path d="M78 44.5C78 42.567 79.567 41 81.5 41H134.5C136.433 41 138 42.567 138 44.5C138 46.433 136.433 48 134.5 48H81.5C79.567 48 78 46.433 78 44.5Z" fill="#B6B6B6"/>
<path d="M37 120.5C37 118.567 38.567 117 40.5 117H93.5C95.433 117 97 118.567 97 120.5C97 122.433 95.433 124 93.5 124H40.5C38.567 124 37 122.433 37 120.5Z" fill="#E7E7E7"/>
<path d="M37 140.5C37 138.567 38.567 137 40.5 137H108.5C110.433 137 112 138.567 112 140.5C112 142.433 110.433 144 108.5 144H40.5C38.567 144 37 142.433 37 140.5Z" fill="#E7E7E7"/>
<path d="M37 160.5C37 158.567 38.567 157 40.5 157H61.5C63.433 157 65 158.567 65 160.5C65 162.433 63.433 164 61.5 164H40.5C38.567 164 37 162.433 37 160.5Z" fill="#E7E7E7"/>
<path d="M37 180.5C37 178.567 38.567 177 40.5 177H74.5C76.433 177 78 178.567 78 180.5C78 182.433 76.433 184 74.5 184H40.5C38.567 184 37 182.433 37 180.5Z" fill="#E7E7E7"/>
<path d="M67 160.5C67 158.567 68.567 157 70.5 157H91.5C93.433 157 95 158.567 95 160.5C95 162.433 93.433 164 91.5 164H70.5C68.567 164 67 162.433 67 160.5Z" fill="#E7E7E7"/>
<path d="M80 180.5C80 178.567 81.567 177 83.5 177H104.5C106.433 177 108 178.567 108 180.5C108 182.433 106.433 184 104.5 184H83.5C81.567 184 80 182.433 80 180.5Z" fill="#E7E7E7"/>
<path d="M110 180.5C110 178.567 111.567 177 113.5 177H122.5C124.433 177 126 178.567 126 180.5C126 182.433 124.433 184 122.5 184H113.5C111.567 184 110 182.433 110 180.5Z" fill="#E7E7E7"/>
<path d="M78 58.5C78 56.567 79.567 55 81.5 55H113.5C115.433 55 117 56.567 117 58.5C117 60.433 115.433 62 113.5 62H81.5C79.567 62 78 60.433 78 58.5Z" fill="#E7E7E7"/>
<path d="M16 160.5C16 158.015 18.0147 156 20.5 156C22.9853 156 25 158.015 25 160.5C25 162.985 22.9853 165 20.5 165C18.0147 165 16 162.985 16 160.5Z" fill="#FFE6D6"/>
<path d="M16 180.5C16 178.015 18.0147 176 20.5 176C22.9853 176 25 178.015 25 180.5C25 182.985 22.9853 185 20.5 185C18.0147 185 16 182.985 16 180.5Z" fill="#CDE8ED"/>
<path d="M16 120.5C16 118.015 18.0147 116 20.5 116C22.9853 116 25 118.015 25 120.5C25 122.985 22.9853 125 20.5 125C18.0147 125 16 122.985 16 120.5Z" fill="#D6D1E8"/>
<path d="M16 140.5C16 138.015 18.0147 136 20.5 136C22.9853 136 25 138.015 25 140.5C25 142.985 22.9853 145 20.5 145C18.0147 145 16 142.985 16 140.5Z" fill="#D8F9ED"/>
<path d="M214.814 116.314C215.366 116.314 215.814 116.761 215.814 117.314V123.314C215.814 123.866 215.366 124.314 214.814 124.314L189.814 124.314C189.261 124.314 188.814 123.866 188.814 123.314V117.314C188.814 116.761 189.261 116.314 189.814 116.314H214.814Z" fill="#6804B7"/>
<path fill-rule="evenodd" clip-rule="evenodd" d="M216.814 117.314V123.314C216.814 124.418 215.918 125.314 214.814 125.314L189.814 125.314C188.709 125.314 187.814 124.418 187.814 123.314V117.314C187.814 116.209 188.709 115.314 189.814 115.314H214.814C215.918 115.314 216.814 116.209 216.814 117.314ZM215.814 117.314C215.814 116.761 215.366 116.314 214.814 116.314H189.814C189.261 116.314 188.814 116.761 188.814 117.314V123.314C188.814 123.866 189.261 124.314 189.814 124.314L214.814 124.314C215.366 124.314 215.814 123.866 215.814 123.314V117.314Z" fill="#6303AF"/>
<path fill-rule="evenodd" clip-rule="evenodd" d="M189.722 116.814C189.722 116.538 189.946 116.314 190.222 116.314H214.689C214.965 116.314 215.189 116.538 215.189 116.814C215.189 117.09 214.965 117.314 214.689 117.314H190.222C189.946 117.314 189.722 117.09 189.722 116.814Z" fill="#9A1CFD"/>
<path fill-rule="evenodd" clip-rule="evenodd" d="M189.532 119.72C189.532 119.444 189.756 119.22 190.032 119.22H214.499C214.775 119.22 214.999 119.444 214.999 119.72C214.999 119.996 214.775 120.22 214.499 120.22H190.032C189.756 120.22 189.532 119.996 189.532 119.72Z" fill="#800CDB"/>
<path fill-rule="evenodd" clip-rule="evenodd" d="M189.532 117.876C189.532 117.6 189.756 117.376 190.032 117.376H214.499C214.775 117.376 214.999 117.6 214.999 117.876C214.999 118.152 214.775 118.376 214.499 118.376H190.032C189.756 118.376 189.532 118.152 189.532 117.876Z" fill="#800CDB"/>
<path fill-rule="evenodd" clip-rule="evenodd" d="M189.532 121.532C189.532 121.256 189.756 121.032 190.032 121.032H214.499C214.775 121.032 214.999 121.256 214.999 121.532C214.999 121.809 214.775 122.032 214.499 122.032H190.032C189.756 122.032 189.532 121.809 189.532 121.532Z" fill="#800CDB"/>
<path fill-rule="evenodd" clip-rule="evenodd" d="M189.722 123.189C189.722 122.913 189.946 122.689 190.222 122.689H214.689C214.965 122.689 215.189 122.913 215.189 123.189C215.189 123.465 214.965 123.689 214.689 123.689H190.222C189.946 123.689 189.722 123.465 189.722 123.189Z" fill="#800CDB"/>
<path d="M190.364 116.707C189.973 116.317 189.34 116.317 188.95 116.707L184.707 120.95C184.317 121.34 184.317 121.973 184.707 122.364L201.763 139.42C202.154 139.811 202.787 139.811 203.178 139.42L207.42 135.178C207.811 134.787 207.811 134.154 207.42 133.763L190.364 116.707Z" fill="#9B2EF0"/>
<path fill-rule="evenodd" clip-rule="evenodd" d="M188.243 116L184 120.243C183.219 121.024 183.219 122.29 184 123.071L201.056 140.127C201.837 140.908 203.104 140.908 203.885 140.127L208.127 135.885C208.908 135.104 208.908 133.837 208.127 133.056L191.071 116C190.29 115.219 189.024 115.219 188.243 116ZM188.95 116.707C189.34 116.317 189.973 116.317 190.364 116.707L207.42 133.763C207.811 134.154 207.811 134.787 207.42 135.178L203.178 139.42C202.787 139.811 202.154 139.811 201.763 139.42L184.707 122.364C184.317 121.973 184.317 121.34 184.707 120.95L188.95 116.707Z" fill="#6303AF"/>
<path d="M214.264 116.727C214.652 116.327 215.293 116.323 215.687 116.717L219.93 120.959C220.317 121.346 220.321 121.972 219.94 122.364L203.364 139.401C202.975 139.8 202.334 139.805 201.94 139.411L197.697 135.168C197.311 134.781 197.306 134.156 197.688 133.764L214.264 116.727Z" fill="#9B2EF0"/>
<path fill-rule="evenodd" clip-rule="evenodd" d="M216.395 116.01L220.637 120.252C221.411 121.026 221.419 122.277 220.656 123.061L204.081 140.098C203.303 140.897 202.021 140.906 201.233 140.118L196.99 135.875C196.217 135.102 196.208 133.85 196.971 133.066L213.547 116.029C214.325 115.23 215.606 115.221 216.395 116.01ZM215.687 116.717C215.293 116.323 214.652 116.327 214.264 116.727L197.688 133.764C197.306 134.156 197.311 134.781 197.697 135.168L201.94 139.411C202.334 139.805 202.975 139.8 203.364 139.401L219.94 122.364C220.321 121.972 220.317 121.346 219.93 120.959L215.687 116.717Z" fill="#6303AF"/>
<path fill-rule="evenodd" clip-rule="evenodd" d="M215.072 117.146C215.268 117.34 215.269 117.657 215.075 117.853L204.856 128.166C204.662 128.362 204.345 128.363 204.149 128.169C203.953 127.974 203.952 127.658 204.146 127.462L214.365 117.149C214.559 116.953 214.876 116.952 215.072 117.146Z" fill="#B860FE"/>
<path fill-rule="evenodd" clip-rule="evenodd" d="M184.835 121.335C185.03 121.14 185.347 121.14 185.542 121.335L192.042 127.835C192.237 128.03 192.237 128.347 192.042 128.542C191.847 128.738 191.53 128.738 191.335 128.542L184.835 122.042C184.64 121.847 184.64 121.53 184.835 121.335Z" fill="#B860FE"/>
<path d="M217.106 120.013C216.905 120.214 216.585 120.217 216.389 120.022C216.194 119.827 216.198 119.506 216.398 119.306C216.599 119.106 216.919 119.102 217.114 119.297C217.31 119.492 217.306 119.813 217.106 120.013Z" fill="#800CDB"/>
<path d="M215.585 121.251C215.336 121.5 214.937 121.505 214.694 121.262C214.451 121.019 214.456 120.62 214.705 120.371C214.954 120.122 215.353 120.117 215.596 120.36C215.839 120.603 215.834 121.002 215.585 121.251Z" fill="#800CDB"/>
<path d="M217.205 121.642C217.081 121.767 216.881 121.769 216.76 121.648C216.638 121.526 216.641 121.327 216.765 121.202C216.89 121.078 217.089 121.076 217.211 121.197C217.332 121.318 217.33 121.518 217.205 121.642Z" fill="#800CDB"/>
<path d="M213.603 125.867C213.479 125.991 213.279 125.993 213.158 125.872C213.036 125.751 213.039 125.551 213.163 125.427C213.288 125.302 213.487 125.3 213.609 125.421C213.73 125.543 213.728 125.742 213.603 125.867Z" fill="#800CDB"/>
<path d="M215.411 122.996C215.287 123.121 215.087 123.123 214.966 123.002C214.845 122.88 214.847 122.681 214.971 122.556C215.096 122.432 215.295 122.429 215.417 122.551C215.538 122.672 215.536 122.872 215.411 122.996Z" fill="#800CDB"/>
<path d="M213.598 127.588C213.473 127.713 213.274 127.715 213.152 127.594C213.031 127.472 213.033 127.273 213.158 127.148C213.282 127.024 213.482 127.021 213.603 127.143C213.725 127.264 213.722 127.464 213.598 127.588Z" fill="#800CDB"/>
<path d="M214.054 122.616C213.93 122.741 213.73 122.743 213.609 122.622C213.487 122.5 213.49 122.301 213.614 122.176C213.739 122.052 213.938 122.049 214.06 122.171C214.181 122.292 214.179 122.492 214.054 122.616Z" fill="#800CDB"/>
<path d="M215.069 126.179C214.944 126.303 214.745 126.306 214.623 126.184C214.502 126.063 214.504 125.863 214.629 125.739C214.753 125.614 214.953 125.612 215.074 125.733C215.196 125.855 215.193 126.054 215.069 126.179Z" fill="#800CDB"/>
<path d="M218.715 120.853C218.59 120.978 218.391 120.98 218.269 120.859C218.148 120.737 218.15 120.538 218.275 120.413C218.399 120.289 218.599 120.286 218.72 120.408C218.842 120.529 218.839 120.729 218.715 120.853Z" fill="#800CDB"/>
<path d="M217.066 123.466C216.863 123.668 216.538 123.672 216.341 123.475C216.143 123.277 216.147 122.952 216.35 122.75C216.552 122.547 216.877 122.543 217.075 122.741C217.272 122.939 217.268 123.263 217.066 123.466Z" fill="#800CDB"/>
<path d="M218.997 122.25C218.795 122.453 218.47 122.457 218.272 122.259C218.075 122.061 218.079 121.737 218.281 121.534C218.484 121.331 218.809 121.327 219.006 121.525C219.204 121.723 219.2 122.047 218.997 122.25Z" fill="#800CDB"/>
<path d="M215.084 124.756C214.881 124.958 214.557 124.962 214.359 124.764C214.161 124.567 214.165 124.242 214.368 124.04C214.571 123.837 214.895 123.833 215.093 124.031C215.291 124.228 215.287 124.553 215.084 124.756Z" fill="#800CDB"/>
<path d="M216.489 124.976C216.364 125.1 216.165 125.103 216.044 124.981C215.922 124.86 215.925 124.66 216.049 124.536C216.174 124.411 216.373 124.409 216.495 124.53C216.616 124.652 216.614 124.851 216.489 124.976Z" fill="#800CDB"/>
<path d="M216 142.5C216 149.956 209.956 156 202.5 156C195.044 156 189 149.956 189 142.5C189 135.044 195.044 129 202.5 129C209.956 129 216 135.044 216 142.5Z" fill="#FFBB0D"/>
<path fill-rule="evenodd" clip-rule="evenodd" d="M217 142.5C217 150.508 210.508 157 202.5 157C194.492 157 188 150.508 188 142.5C188 134.492 194.492 128 202.5 128C210.508 128 217 134.492 217 142.5ZM202.5 156C209.956 156 216 149.956 216 142.5C216 135.044 209.956 129 202.5 129C195.044 129 189 135.044 189 142.5C189 149.956 195.044 156 202.5 156Z" fill="#E89B05"/>
<path fill-rule="evenodd" clip-rule="evenodd" d="M190 143C189.724 143 189.5 142.776 189.5 142.5C189.5 135.32 195.32 129.5 202.5 129.5C202.776 129.5 203 129.724 203 130C203 130.276 202.776 130.5 202.5 130.5C195.873 130.5 190.5 135.873 190.5 142.5C190.5 142.776 190.276 143 190 143Z" fill="#E8AA0A"/>
<path fill-rule="evenodd" clip-rule="evenodd" d="M215 142C215.276 142 215.5 142.224 215.5 142.5C215.5 149.68 209.68 155.5 202.5 155.5C202.224 155.5 202 155.276 202 155C202 154.724 202.224 154.5 202.5 154.5C209.127 154.5 214.5 149.127 214.5 142.5C214.5 142.224 214.724 142 215 142Z" fill="#E8AA0A"/>
<path d="M212.5 142.5C212.5 148.023 208.023 152.5 202.5 152.5C196.977 152.5 192.5 148.023 192.5 142.5C192.5 136.977 196.977 132.5 202.5 132.5C208.023 132.5 212.5 136.977 212.5 142.5Z" fill="#FFDD28"/>
<path fill-rule="evenodd" clip-rule="evenodd" d="M213.5 142.5C213.5 148.575 208.575 153.5 202.5 153.5C196.425 153.5 191.5 148.575 191.5 142.5C191.5 136.425 196.425 131.5 202.5 131.5C208.575 131.5 213.5 136.425 213.5 142.5ZM202.5 152.5C208.023 152.5 212.5 148.023 212.5 142.5C212.5 136.977 208.023 132.5 202.5 132.5C196.977 132.5 192.5 136.977 192.5 142.5C192.5 148.023 196.977 152.5 202.5 152.5Z" fill="#E89B05"/>
<path fill-rule="evenodd" clip-rule="evenodd" d="M202.5 151C207.194 151 211 147.194 211 142.5C211 142.224 211.224 142 211.5 142C211.776 142 212 142.224 212 142.5C212 147.747 207.747 152 202.5 152C202.224 152 202 151.776 202 151.5C202 151.224 202.224 151 202.5 151Z" fill="#ECC704"/>
<path fill-rule="evenodd" clip-rule="evenodd" d="M202.5 134C197.806 134 194 137.806 194 142.5C194 142.776 193.776 143 193.5 143C193.224 143 193 142.776 193 142.5C193 137.253 197.253 133 202.5 133C202.776 133 203 133.224 203 133.5C203 133.776 202.776 134 202.5 134Z" fill="#FFEF9C"/>
<path d="M304 163.222C304 171.077 297.632 177.444 289.778 177.444C281.923 177.444 275.555 171.077 275.555 163.222C275.555 155.368 281.923 149 289.778 149C297.632 149 304 155.368 304 163.222Z" fill="#FFBB0D"/>
<path fill-rule="evenodd" clip-rule="evenodd" d="M305.053 163.222C305.053 171.659 298.214 178.498 289.778 178.498C281.341 178.498 274.502 171.659 274.502 163.222C274.502 154.786 281.341 147.947 289.778 147.947C298.214 147.947 305.053 154.786 305.053 163.222ZM289.778 177.444C297.632 177.444 304 171.077 304 163.222C304 155.368 297.632 149 289.778 149C281.923 149 275.555 155.368 275.555 163.222C275.555 171.077 281.923 177.444 289.778 177.444Z" fill="#E89B05"/>
<path fill-rule="evenodd" clip-rule="evenodd" d="M276.609 163.749C276.318 163.749 276.082 163.513 276.082 163.222C276.082 155.658 282.214 149.527 289.778 149.527C290.069 149.527 290.304 149.763 290.304 150.053C290.304 150.344 290.069 150.58 289.778 150.58C282.796 150.58 277.136 156.24 277.136 163.222C277.136 163.513 276.9 163.749 276.609 163.749Z" fill="#E8AA0A"/>
<path fill-rule="evenodd" clip-rule="evenodd" d="M302.946 162.695C303.237 162.695 303.473 162.931 303.473 163.222C303.473 170.786 297.341 176.918 289.778 176.918C289.487 176.918 289.251 176.682 289.251 176.391C289.251 176.1 289.487 175.864 289.778 175.864C296.76 175.864 302.42 170.204 302.42 163.222C302.42 162.931 302.655 162.695 302.946 162.695Z" fill="#E8AA0A"/>
<path d="M300.313 163.222C300.313 169.041 295.596 173.757 289.778 173.757C283.959 173.757 279.243 169.041 279.243 163.222C279.243 157.404 283.959 152.687 289.778 152.687C295.596 152.687 300.313 157.404 300.313 163.222Z" fill="#FFDD28"/>
<path fill-rule="evenodd" clip-rule="evenodd" d="M301.366 163.222C301.366 169.622 296.178 174.811 289.778 174.811C283.378 174.811 278.189 169.622 278.189 163.222C278.189 156.822 283.378 151.634 289.778 151.634C296.178 151.634 301.366 156.822 301.366 163.222ZM289.778 173.757C295.596 173.757 300.313 169.041 300.313 163.222C300.313 157.404 295.596 152.687 289.778 152.687C283.959 152.687 279.243 157.404 279.243 163.222C279.243 169.041 283.959 173.757 289.778 173.757Z" fill="#E89B05"/>
<path fill-rule="evenodd" clip-rule="evenodd" d="M289.778 172.177C294.723 172.177 298.732 168.168 298.732 163.222C298.732 162.931 298.968 162.695 299.259 162.695C299.55 162.695 299.786 162.931 299.786 163.222C299.786 168.75 295.305 173.23 289.778 173.23C289.487 173.23 289.251 172.995 289.251 172.704C289.251 172.413 289.487 172.177 289.778 172.177Z" fill="#ECC704"/>
<path fill-rule="evenodd" clip-rule="evenodd" d="M289.778 154.267C284.832 154.267 280.823 158.277 280.823 163.222C280.823 163.513 280.587 163.749 280.296 163.749C280.005 163.749 279.769 163.513 279.769 163.222C279.769 157.695 284.25 153.214 289.778 153.214C290.069 153.214 290.304 153.45 290.304 153.741C290.304 154.032 290.069 154.267 289.778 154.267Z" fill="#FFEF9C"/>
<path d="M273.678 177.246L272.322 174.532C272.174 174.237 272.389 173.889 272.719 173.889H278.667C278.912 173.889 279.111 174.088 279.111 174.333V180.556C279.111 180.801 278.912 181 278.667 181H272.719C272.389 181 272.174 180.652 272.322 180.357L273.678 177.643C273.741 177.518 273.741 177.371 273.678 177.246Z" fill="#6804B7"/>
<path d="M305.877 177.246L307.234 174.532C307.382 174.237 307.167 173.889 306.836 173.889H300.889C300.643 173.889 300.444 174.088 300.444 174.333V180.556C300.444 180.801 300.643 181 300.889 181H306.836C307.167 181 307.382 180.652 307.234 180.357L305.877 177.643C305.815 177.518 305.815 177.371 305.877 177.246Z" fill="#6804B7"/>
<path fill-rule="evenodd" clip-rule="evenodd" d="M272.784 177.444L271.527 174.93C271.083 174.043 271.728 173 272.719 173H278.667C279.403 173 280 173.597 280 174.333V180.556C280 181.292 279.403 181.889 278.667 181.889H272.719C271.728 181.889 271.083 180.846 271.527 179.959L272.784 177.444ZM272.883 177.643C272.883 177.643 272.883 177.643 272.883 177.643ZM306.772 177.444L308.029 174.93C308.472 174.043 307.828 173 306.836 173H300.889C300.153 173 299.556 173.597 299.556 174.333V180.556C299.556 181.292 300.153 181.889 300.889 181.889H306.836C307.828 181.889 308.472 180.846 308.029 179.959L306.772 177.444ZM307.234 174.532L305.877 177.246C305.815 177.371 305.815 177.518 305.877 177.643L307.234 180.357C307.382 180.652 307.167 181 306.836 181H300.889C300.643 181 300.444 180.801 300.444 180.556V174.333C300.444 174.088 300.643 173.889 300.889 173.889H306.836C307.167 173.889 307.382 174.237 307.234 174.532ZM272.322 174.532L273.678 177.246C273.741 177.371 273.741 177.518 273.678 177.643L272.322 180.357C272.174 180.652 272.389 181 272.719 181H278.667C278.912 181 279.111 180.801 279.111 180.556V174.333C279.111 174.088 278.912 173.889 278.667 173.889H272.719C272.389 173.889 272.174 174.237 272.322 174.532Z" fill="#6303AF"/>
<path fill-rule="evenodd" clip-rule="evenodd" d="M272.957 174.291C273.039 174.162 273.181 174.083 273.333 174.083H275.222C275.468 174.083 275.667 174.282 275.667 174.528C275.667 174.773 275.468 174.972 275.222 174.972H274.039L274.957 176.892C275.062 177.113 274.969 177.378 274.747 177.484C274.526 177.59 274.261 177.497 274.155 177.275L272.932 174.72C272.867 174.582 272.876 174.42 272.957 174.291Z" fill="#9A1CFD"/>
<path d="M302.222 178.778V172.556C302.222 172.31 302.023 172.111 301.778 172.111H277.778C277.532 172.111 277.333 172.31 277.333 172.556V178.778C277.333 179.023 277.532 179.222 277.778 179.222H301.778C302.023 179.222 302.222 179.023 302.222 178.778Z" fill="#9B2EF0"/>
<path fill-rule="evenodd" clip-rule="evenodd" d="M303.111 172.556V178.778C303.111 179.514 302.514 180.111 301.778 180.111H277.778C277.041 180.111 276.444 179.514 276.444 178.778V172.556C276.444 171.819 277.041 171.222 277.778 171.222H301.778C302.514 171.222 303.111 171.819 303.111 172.556ZM302.222 172.556V178.778C302.222 179.023 302.023 179.222 301.778 179.222H277.778C277.532 179.222 277.333 179.023 277.333 178.778V172.556C277.333 172.31 277.532 172.111 277.778 172.111H301.778C302.023 172.111 302.222 172.31 302.222 172.556Z" fill="#6303AF"/>
<path fill-rule="evenodd" clip-rule="evenodd" d="M277.611 172.75C277.611 172.505 277.81 172.306 278.056 172.306H294.722C294.968 172.306 295.167 172.505 295.167 172.75C295.167 172.995 294.968 173.194 294.722 173.194H278.5V176.306C278.5 176.551 278.301 176.75 278.056 176.75C277.81 176.75 277.611 176.551 277.611 176.306V172.75Z" fill="#B860FE"/>
<path d="M300.994 175.835C300.743 175.835 300.539 175.636 300.539 175.391C300.539 175.145 300.743 174.946 300.994 174.946C301.246 174.946 301.45 175.145 301.45 175.391C301.45 175.636 301.246 175.835 300.994 175.835Z" fill="#800CDB"/>
<path d="M299.26 175.658C298.947 175.658 298.694 175.41 298.694 175.105C298.694 174.799 298.947 174.552 299.26 174.552C299.574 174.552 299.827 174.799 299.827 175.105C299.827 175.41 299.574 175.658 299.26 175.658Z" fill="#800CDB"/>
<path d="M300.033 176.922C299.876 176.922 299.75 176.798 299.75 176.645C299.75 176.493 299.876 176.369 300.033 176.369C300.189 176.369 300.316 176.493 300.316 176.645C300.316 176.798 300.189 176.922 300.033 176.922Z" fill="#800CDB"/>
<path d="M299.544 173.997C299.387 173.997 299.26 173.874 299.26 173.721C299.26 173.568 299.387 173.444 299.544 173.444C299.7 173.444 299.827 173.568 299.827 173.721C299.827 173.874 299.7 173.997 299.544 173.997Z" fill="#800CDB"/>
<path d="M298.055 176.645C297.898 176.645 297.771 176.522 297.771 176.369C297.771 176.216 297.898 176.092 298.055 176.092C298.211 176.092 298.338 176.216 298.338 176.369C298.338 176.522 298.211 176.645 298.055 176.645Z" fill="#800CDB"/>
<path d="M297.771 175.223C297.615 175.223 297.488 175.099 297.488 174.946C297.488 174.794 297.615 174.67 297.771 174.67C297.928 174.67 298.055 174.794 298.055 174.946C298.055 175.099 297.928 175.223 297.771 175.223Z" fill="#800CDB"/>
<path d="M295.839 178.43C295.682 178.43 295.556 178.306 295.556 178.154C295.556 178.001 295.682 177.877 295.839 177.877C295.996 177.877 296.122 178.001 296.122 178.154C296.122 178.306 295.996 178.43 295.839 178.43Z" fill="#800CDB"/>
<path d="M301.478 177.375C301.321 177.375 301.194 177.251 301.194 177.098C301.194 176.945 301.321 176.822 301.478 176.822C301.634 176.822 301.761 176.945 301.761 177.098C301.761 177.251 301.634 177.375 301.478 177.375Z" fill="#800CDB"/>
<path d="M298.799 177.98C298.545 177.98 298.338 177.779 298.338 177.53C298.338 177.282 298.545 177.08 298.799 177.08C299.054 177.08 299.26 177.282 299.26 177.53C299.26 177.779 299.054 177.98 298.799 177.98Z" fill="#800CDB"/>
<path d="M300.778 178.43C300.523 178.43 300.316 178.229 300.316 177.98C300.316 177.732 300.523 177.53 300.778 177.53C301.032 177.53 301.239 177.732 301.239 177.98C301.239 178.229 301.032 178.43 300.778 178.43Z" fill="#800CDB"/>
<path d="M296.743 177.545C296.488 177.545 296.282 177.344 296.282 177.095C296.282 176.847 296.488 176.645 296.743 176.645C296.998 176.645 297.204 176.847 297.204 177.095C297.204 177.344 296.998 177.545 296.743 177.545Z" fill="#800CDB"/>
<path d="M297.488 178.567C297.331 178.567 297.204 178.443 297.204 178.29C297.204 178.138 297.331 178.014 297.488 178.014C297.644 178.014 297.771 178.138 297.771 178.29C297.771 178.443 297.644 178.567 297.488 178.567Z" fill="#800CDB"/>
<path d="M237.952 77.3072L252.071 66.9009L254.064 46.6863L270.782 58.2235L287.847 54.1675L281.263 72.653L291.744 87.0826L272.471 86.3759L260.56 101.545L256.316 84.2229L237.952 77.3072Z" fill="#E1E1E1"/>
<path fill-rule="evenodd" clip-rule="evenodd" d="M252.071 66.9009L254.064 46.6863L270.782 58.2235L287.847 54.1675L281.263 72.653L291.744 87.0826L272.471 86.3759L260.56 101.545L256.316 84.2229L237.952 77.3072L252.071 66.9009ZM252.087 87.973L236.19 81.9863C234.474 81.3404 233.25 79.8079 232.999 77.9924C232.748 76.1769 233.51 74.3695 234.985 73.2822L247.314 64.1959L249.088 46.1958C249.262 44.4339 250.355 42.8952 251.961 42.1503C253.567 41.4055 255.447 41.5655 256.904 42.5711L271.791 52.8444L286.691 49.3029C288.474 48.8791 290.346 49.4648 291.57 50.8293C292.793 52.1938 293.172 54.1184 292.557 55.845L286.858 71.8473L295.79 84.1441C296.914 85.692 297.057 87.7457 296.157 89.434C295.257 91.1224 293.473 92.1493 291.561 92.0792L274.831 91.4657L264.492 104.633C263.311 106.137 261.374 106.836 259.504 106.432C257.634 106.028 256.159 104.593 255.704 102.735L252.087 87.973Z" fill="#8B8B8B"/>
</svg>
